<svg width="212" height="39" viewBox="0 0 212 39" fill="none" xmlns="http://www.w3.org/2000/svg">
<g clip-path="url(#clip0_745_2103)">
<mask id="mask0_745_2103" style="mask-type:alpha" maskUnits="userSpaceOnUse" x="0" y="0" width="212" height="40">
<path d="M211.46 0.0737305H0.459961V39.0737H211.46V0.0737305Z" fill="white"/>
<path d="M15.996 5.30573C14.2786 5.30573 12.8986 5.87307 11.856 7.00773C10.8133 8.1424 10.292 9.64507 10.292 11.5158V12.7578H14.984C15.628 12.7578 16.1493 12.9418 16.548 13.3098C16.9466 13.6778 17.146 14.1684 17.146 14.7818C17.146 15.3338 16.9466 15.7938 16.548 16.1618C16.1493 16.5298 15.628 16.7138 14.984 16.7138H10.292V34.6538C10.292 35.3591 10.0773 35.9264 9.64796 36.3558C9.21863 36.7851 8.62063 36.9998 7.85396 36.9998C7.24063 36.9998 6.70396 36.7851 6.24396 36.3558C5.81463 35.9264 5.59996 35.3591 5.59996 34.6538V16.7138H3.62196C2.97796 16.7138 2.45663 16.5298 2.05796 16.1618C1.65929 15.7938 1.45996 15.3338 1.45996 14.7818C1.45996 14.1684 1.65929 13.6778 2.05796 13.3098C2.45663 12.9418 2.97796 12.7578 3.62196 12.7578H5.59996V11.9758C5.59996 9.7984 6.02929 7.89707 6.88796 6.27173C7.77729 4.61573 9.00396 3.34307 10.568 2.45373C12.1626 1.53373 13.972 1.07373 15.996 1.07373C16.6706 1.07373 17.2226 1.27307 17.652 1.67174C18.112 2.0704 18.342 2.5764 18.342 3.18973C18.342 3.80307 18.112 4.30907 17.652 4.70773C17.2226 5.1064 16.6706 5.30573 15.996 5.30573Z" fill="black"/>
<path d="M34.3585 11.5615C35.9838 11.5615 37.2565 11.8068 38.1765 12.2975C39.0965 12.7881 39.5565 13.4015 39.5565 14.1375C39.5565 14.3521 39.5412 14.5055 39.5105 14.5975C39.2345 15.5788 38.6212 16.0695 37.6705 16.0695C37.5172 16.0695 37.2872 16.0388 36.9805 15.9775C35.7538 15.7628 34.7572 15.6555 33.9905 15.6555C31.7825 15.6555 30.0038 16.1615 28.6545 17.1735C27.3052 18.1855 26.6305 19.5501 26.6305 21.2675V34.6995C26.6305 35.4355 26.4312 36.0028 26.0325 36.4015C25.6645 36.8001 25.0972 36.9995 24.3305 36.9995C23.5945 36.9995 23.0272 36.8155 22.6285 36.4475C22.2298 36.0488 22.0305 35.4661 22.0305 34.6995V14.1375C22.0305 13.4015 22.2298 12.8341 22.6285 12.4355C23.0272 12.0368 23.5945 11.8375 24.3305 11.8375C25.8638 11.8375 26.6305 12.6041 26.6305 14.1375V15.0115C27.5505 13.9381 28.6852 13.0948 30.0345 12.4815C31.3838 11.8681 32.8252 11.5615 34.3585 11.5615Z" fill="black"/>
<path d="M53.968 37.1838C51.5147 37.1838 49.322 36.6471 47.39 35.5738C45.458 34.4698 43.9553 32.9518 42.882 31.0198C41.8087 29.0878 41.272 26.8951 41.272 24.4418C41.272 21.9578 41.8087 19.7498 42.882 17.8178C43.9553 15.8858 45.458 14.3831 47.39 13.3098C49.322 12.2058 51.5147 11.6538 53.968 11.6538C56.3907 11.6538 58.5527 12.2058 60.454 13.3098C62.386 14.3831 63.8887 15.8858 64.962 17.8178C66.066 19.7498 66.618 21.9578 66.618 24.4418C66.618 26.8951 66.0813 29.0878 65.008 31.0198C63.9346 32.9518 62.432 34.4698 60.5 35.5738C58.5987 36.6471 56.4213 37.1838 53.968 37.1838ZM53.968 33.0438C55.532 33.0438 56.9273 32.6758 58.154 31.9398C59.4113 31.2038 60.3773 30.1918 61.052 28.9038C61.7573 27.5851 62.11 26.0978 62.11 24.4418C62.11 22.7858 61.7573 21.2984 61.052 19.9798C60.3773 18.6611 59.4113 17.6338 58.154 16.8978C56.9273 16.1618 55.532 15.7938 53.968 15.7938C52.404 15.7938 50.9933 16.1618 49.736 16.8978C48.5093 17.6338 47.5433 18.6611 46.838 19.9798C46.1326 21.2984 45.78 22.7858 45.78 24.4418C45.78 26.0978 46.1326 27.5851 46.838 28.9038C47.5433 30.1918 48.5093 31.2038 49.736 31.9398C50.9933 32.6758 52.404 33.0438 53.968 33.0438Z" fill="black"/>
<path d="M86.1128 11.6079C88.2288 11.6079 90.1301 12.0679 91.8168 12.9879C93.5035 13.9079 94.8221 15.2572 95.7728 17.0359C96.7235 18.7839 97.1988 20.8999 97.1988 23.3839V34.6999C97.1988 35.3745 96.9688 35.9419 96.5088 36.4019C96.0795 36.8312 95.5275 37.0459 94.8528 37.0459C94.1781 37.0459 93.6108 36.8312 93.1508 36.4019C92.7215 35.9419 92.5068 35.3745 92.5068 34.6999V23.3839C92.5068 20.8999 91.8321 19.0292 90.4828 17.7719C89.1641 16.4839 87.4008 15.8399 85.1928 15.8399C83.9048 15.8399 82.7241 16.1005 81.6508 16.6219C80.6081 17.1432 79.7801 17.8485 79.1668 18.7379C78.5841 19.6272 78.2928 20.6239 78.2928 21.7279V34.6999C78.2928 35.3745 78.0781 35.9419 77.6488 36.4019C77.2195 36.8312 76.6521 37.0459 75.9468 37.0459C75.2721 37.0459 74.7048 36.8312 74.2448 36.4019C73.8155 35.9419 73.6008 35.3745 73.6008 34.6999V14.1839C73.6008 13.4785 73.8155 12.9112 74.2448 12.4819C74.7048 12.0525 75.2721 11.8379 75.9468 11.8379C76.6521 11.8379 77.2195 12.0525 77.6488 12.4819C78.0781 12.9112 78.2928 13.4785 78.2928 14.1839V14.6899C79.2741 13.7085 80.4395 12.9572 81.7888 12.4359C83.1381 11.8839 84.5795 11.6079 86.1128 11.6079Z" fill="black"/>
<path d="M126.668 1.07373C127.374 1.07373 127.941 1.2884 128.37 1.71773C128.8 2.14707 129.014 2.7144 129.014 3.41973V24.3958C129.014 26.7878 128.447 28.9651 127.312 30.9278C126.208 32.8598 124.69 34.3931 122.758 35.5278C120.857 36.6318 118.726 37.1838 116.364 37.1838C114.003 37.1838 111.841 36.6318 109.878 35.5278C107.946 34.3931 106.428 32.8598 105.324 30.9278C104.22 28.9651 103.668 26.7878 103.668 24.3958C103.668 22.0038 104.174 19.8418 105.186 17.9098C106.229 15.9471 107.64 14.4138 109.418 13.3098C111.228 12.2058 113.236 11.6538 115.444 11.6538C117.223 11.6538 118.879 12.0218 120.412 12.7578C121.946 13.4938 123.249 14.5211 124.322 15.8398V3.41973C124.322 2.7144 124.537 2.14707 124.966 1.71773C125.426 1.2884 125.994 1.07373 126.668 1.07373ZM116.364 33.0438C117.898 33.0438 119.278 32.6758 120.504 31.9398C121.762 31.1731 122.743 30.1304 123.448 28.8118C124.154 27.4931 124.506 26.0211 124.506 24.3958C124.506 22.7704 124.154 21.3138 123.448 20.0258C122.743 18.7071 121.762 17.6798 120.504 16.9438C119.278 16.1771 117.898 15.7938 116.364 15.7938C114.831 15.7938 113.436 16.1771 112.178 16.9438C110.952 17.6798 109.97 18.7071 109.234 20.0258C108.529 21.3138 108.176 22.7704 108.176 24.3958C108.176 26.0211 108.529 27.4931 109.234 28.8118C109.97 30.1304 110.952 31.1731 112.178 31.9398C113.436 32.6758 114.831 33.0438 116.364 33.0438Z" fill="black"/>
<path d="M159.886 24.0278C159.886 24.6104 159.687 25.1011 159.288 25.4998C158.889 25.8678 158.383 26.0518 157.77 26.0518H140.29C140.627 28.1984 141.593 29.9311 143.188 31.2498C144.813 32.5684 146.791 33.2278 149.122 33.2278C150.042 33.2278 150.993 33.0591 151.974 32.7218C152.986 32.3844 153.814 31.9704 154.458 31.4798C154.887 31.1424 155.393 30.9738 155.976 30.9738C156.559 30.9738 157.019 31.1271 157.356 31.4338C157.908 31.8938 158.184 32.4151 158.184 32.9978C158.184 33.5498 157.939 34.0098 157.448 34.3778C156.405 35.2058 155.102 35.8804 153.538 36.4018C152.005 36.9231 150.533 37.1838 149.122 37.1838C146.607 37.1838 144.353 36.6471 142.36 35.5738C140.367 34.4698 138.803 32.9518 137.668 31.0198C136.564 29.0878 136.012 26.8951 136.012 24.4418C136.012 21.9884 136.533 19.7958 137.576 17.8638C138.649 15.9011 140.121 14.3831 141.992 13.3098C143.893 12.2058 146.04 11.6538 148.432 11.6538C150.793 11.6538 152.833 12.1751 154.55 13.2178C156.267 14.2604 157.586 15.7171 158.506 17.5878C159.426 19.4584 159.886 21.6051 159.886 24.0278ZM148.432 15.6098C146.193 15.6098 144.369 16.2231 142.958 17.4498C141.578 18.6764 140.704 20.3171 140.336 22.3718H155.654C155.378 20.3171 154.611 18.6764 153.354 17.4498C152.097 16.2231 150.456 15.6098 148.432 15.6098Z" fill="black"/>
<path d="M175.024 37.1838C172.939 37.1838 170.976 36.8618 169.136 36.2178C167.296 35.5738 165.855 34.7304 164.812 33.6878C164.414 33.2891 164.214 32.8138 164.214 32.2618C164.214 31.5258 164.521 30.9278 165.134 30.4678C165.717 30.0384 166.254 29.8238 166.744 29.8238C167.358 29.8238 167.94 30.0998 168.492 30.6518C169.075 31.2958 169.949 31.8631 171.114 32.3538C172.28 32.8138 173.522 33.0438 174.84 33.0438C176.588 33.0438 177.938 32.7524 178.888 32.1698C179.87 31.5871 180.36 30.8051 180.36 29.8238C180.36 28.8731 179.885 28.0911 178.934 27.4778C177.984 26.8338 176.374 26.2971 174.104 25.8678C168.216 24.7331 165.272 22.3104 165.272 18.5998C165.272 17.0971 165.717 15.8244 166.606 14.7818C167.496 13.7391 168.661 12.9571 170.102 12.4358C171.544 11.9144 173.077 11.6538 174.702 11.6538C176.696 11.6538 178.474 11.9758 180.038 12.6198C181.633 13.2638 182.89 14.1531 183.81 15.2878C184.209 15.7784 184.408 16.2691 184.408 16.7598C184.408 17.2811 184.148 17.7564 183.626 18.1858C183.289 18.4311 182.86 18.5538 182.338 18.5538C181.541 18.5538 180.82 18.2624 180.176 17.6798C179.41 16.9744 178.597 16.4838 177.738 16.2078C176.88 15.9011 175.837 15.7478 174.61 15.7478C173.2 15.7478 172.034 15.9931 171.114 16.4838C170.225 16.9438 169.78 17.6031 169.78 18.4618C169.78 19.0751 169.934 19.5964 170.24 20.0258C170.547 20.4244 171.13 20.8078 171.988 21.1758C172.847 21.5131 174.089 21.8504 175.714 22.1878C179.057 22.8624 181.418 23.7978 182.798 24.9938C184.209 26.1898 184.914 27.7384 184.914 29.6398C184.914 31.0504 184.531 32.3384 183.764 33.5038C182.998 34.6384 181.863 35.5431 180.36 36.2178C178.888 36.8618 177.11 37.1838 175.024 37.1838Z" fill="black"/>
<path d="M209.845 33.6878C210.182 34.0558 210.351 34.5158 210.351 35.0678C210.351 35.7424 210.075 36.3098 209.523 36.7698C209.063 37.1378 208.572 37.3218 208.051 37.3218C207.376 37.3218 206.824 37.0458 206.395 36.4938L197.655 25.6838L195.355 27.7078V34.7458C195.355 35.4204 195.14 35.9724 194.711 36.4018C194.312 36.8004 193.776 36.9998 193.101 36.9998C192.426 36.9998 191.874 36.8004 191.445 36.4018C191.046 35.9724 190.847 35.4204 190.847 34.7458V3.32773C190.847 2.65307 191.046 2.1164 191.445 1.71773C191.874 1.2884 192.426 1.07373 193.101 1.07373C193.776 1.07373 194.312 1.2884 194.711 1.71773C195.14 2.1164 195.355 2.65307 195.355 3.32773V22.0498L206.533 12.0678C206.932 11.6691 207.407 11.4698 207.959 11.4698C208.603 11.4698 209.124 11.7151 209.523 12.2058C209.922 12.6044 210.121 13.0798 210.121 13.6318C210.121 14.2758 209.876 14.7971 209.385 15.1958L200.921 22.7398L209.845 33.6878Z" fill="black"/>
</mask>
<g mask="url(#mask0_745_2103)">
<path d="M15.996 5.30573C14.2786 5.30573 12.8986 5.87307 11.856 7.00773C10.8133 8.1424 10.292 9.64507 10.292 11.5158V12.7578H14.984C15.628 12.7578 16.1493 12.9418 16.548 13.3098C16.9466 13.6778 17.146 14.1684 17.146 14.7818C17.146 15.3338 16.9466 15.7938 16.548 16.1618C16.1493 16.5298 15.628 16.7138 14.984 16.7138H10.292V34.6538C10.292 35.3591 10.0773 35.9264 9.64796 36.3558C9.21863 36.7851 8.62063 36.9998 7.85396 36.9998C7.24063 36.9998 6.70396 36.7851 6.24396 36.3558C5.81463 35.9264 5.59996 35.3591 5.59996 34.6538V16.7138H3.62196C2.97796 16.7138 2.45663 16.5298 2.05796 16.1618C1.65929 15.7938 1.45996 15.3338 1.45996 14.7818C1.45996 14.1684 1.65929 13.6778 2.05796 13.3098C2.45663 12.9418 2.97796 12.7578 3.62196 12.7578H5.59996V11.9758C5.59996 9.7984 6.02929 7.89707 6.88796 6.27173C7.77729 4.61573 9.00396 3.34307 10.568 2.45373C12.1626 1.53373 13.972 1.07373 15.996 1.07373C16.6706 1.07373 17.2226 1.27307 17.652 1.67174C18.112 2.0704 18.342 2.5764 18.342 3.18973C18.342 3.80307 18.112 4.30907 17.652 4.70773C17.2226 5.1064 16.6706 5.30573 15.996 5.30573Z" fill="white"/>
<path d="M34.3585 11.562C35.9838 11.562 37.2565 11.8073 38.1765 12.298C39.0965 12.7886 39.5565 13.402 39.5565 14.138C39.5565 14.3526 39.5412 14.506 39.5105 14.598C39.2345 15.5793 38.6212 16.07 37.6705 16.07C37.5172 16.07 37.2872 16.0393 36.9805 15.978C35.7538 15.7633 34.7572 15.656 33.9905 15.656C31.7825 15.656 30.0038 16.162 28.6545 17.174C27.3052 18.186 26.6305 19.5506 26.6305 21.268V34.7C26.6305 35.436 26.4312 36.0033 26.0325 36.402C25.6645 36.8006 25.0972 37 24.3305 37C23.5945 37 23.0272 36.816 22.6285 36.448C22.2298 36.0493 22.0305 35.4666 22.0305 34.7V14.138C22.0305 13.402 22.2298 12.8346 22.6285 12.436C23.0272 12.0373 23.5945 11.838 24.3305 11.838C25.8638 11.838 26.6305 12.6046 26.6305 14.138V15.012C27.5505 13.9386 28.6852 13.0953 30.0345 12.482C31.3838 11.8686 32.8252 11.562 34.3585 11.562Z" fill="white"/>
<path d="M53.968 37.1838C51.5147 37.1838 49.322 36.6471 47.39 35.5738C45.458 34.4698 43.9553 32.9518 42.882 31.0198C41.8087 29.0878 41.272 26.8951 41.272 24.4418C41.272 21.9578 41.8087 19.7498 42.882 17.8178C43.9553 15.8858 45.458 14.3831 47.39 13.3098C49.322 12.2058 51.5147 11.6538 53.968 11.6538C56.3907 11.6538 58.5527 12.2058 60.454 13.3098C62.386 14.3831 63.8887 15.8858 64.962 17.8178C66.066 19.7498 66.618 21.9578 66.618 24.4418C66.618 26.8951 66.0813 29.0878 65.008 31.0198C63.9346 32.9518 62.432 34.4698 60.5 35.5738C58.5987 36.6471 56.4213 37.1838 53.968 37.1838ZM53.968 33.0438C55.532 33.0438 56.9273 32.6758 58.154 31.9398C59.4113 31.2038 60.3773 30.1918 61.052 28.9038C61.7573 27.5851 62.11 26.0978 62.11 24.4418C62.11 22.7858 61.7573 21.2984 61.052 19.9798C60.3773 18.6611 59.4113 17.6338 58.154 16.8978C56.9273 16.1618 55.532 15.7938 53.968 15.7938C52.404 15.7938 50.9933 16.1618 49.736 16.8978C48.5093 17.6338 47.5433 18.6611 46.838 19.9798C46.1326 21.2984 45.78 22.7858 45.78 24.4418C45.78 26.0978 46.1326 27.5851 46.838 28.9038C47.5433 30.1918 48.5093 31.2038 49.736 31.9398C50.9933 32.6758 52.404 33.0438 53.968 33.0438Z" fill="white"/>
<path d="M86.1128 11.6079C88.2288 11.6079 90.1301 12.0679 91.8168 12.9879C93.5035 13.9079 94.8221 15.2572 95.7728 17.0359C96.7235 18.7839 97.1988 20.8999 97.1988 23.3839V34.6999C97.1988 35.3745 96.9688 35.9419 96.5088 36.4019C96.0795 36.8312 95.5275 37.0459 94.8528 37.0459C94.1781 37.0459 93.6108 36.8312 93.1508 36.4019C92.7215 35.9419 92.5068 35.3745 92.5068 34.6999V23.3839C92.5068 20.8999 91.8321 19.0292 90.4828 17.7719C89.1641 16.4839 87.4008 15.8399 85.1928 15.8399C83.9048 15.8399 82.7241 16.1005 81.6508 16.6219C80.6081 17.1432 79.7801 17.8485 79.1668 18.7379C78.5841 19.6272 78.2928 20.6239 78.2928 21.7279V34.6999C78.2928 35.3745 78.0781 35.9419 77.6488 36.4019C77.2195 36.8312 76.6521 37.0459 75.9468 37.0459C75.2721 37.0459 74.7048 36.8312 74.2448 36.4019C73.8155 35.9419 73.6008 35.3745 73.6008 34.6999V14.1839C73.6008 13.4785 73.8155 12.9112 74.2448 12.4819C74.7048 12.0525 75.2721 11.8379 75.9468 11.8379C76.6521 11.8379 77.2195 12.0525 77.6488 12.4819C78.0781 12.9112 78.2928 13.4785 78.2928 14.1839V14.6899C79.2741 13.7085 80.4395 12.9572 81.7888 12.4359C83.1381 11.8839 84.5795 11.6079 86.1128 11.6079Z" fill="white"/>
<path d="M126.668 1.07373C127.374 1.07373 127.941 1.2884 128.37 1.71773C128.8 2.14707 129.014 2.7144 129.014 3.41973V24.3958C129.014 26.7878 128.447 28.9651 127.312 30.9278C126.208 32.8598 124.69 34.3931 122.758 35.5278C120.857 36.6318 118.726 37.1838 116.364 37.1838C114.003 37.1838 111.841 36.6318 109.878 35.5278C107.946 34.3931 106.428 32.8598 105.324 30.9278C104.22 28.9651 103.668 26.7878 103.668 24.3958C103.668 22.0038 104.174 19.8418 105.186 17.9098C106.229 15.9471 107.64 14.4138 109.418 13.3098C111.228 12.2058 113.236 11.6538 115.444 11.6538C117.223 11.6538 118.879 12.0218 120.412 12.7578C121.946 13.4938 123.249 14.5211 124.322 15.8398V3.41973C124.322 2.7144 124.537 2.14707 124.966 1.71773C125.426 1.2884 125.994 1.07373 126.668 1.07373ZM116.364 33.0438C117.898 33.0438 119.278 32.6758 120.504 31.9398C121.762 31.1731 122.743 30.1304 123.448 28.8118C124.154 27.4931 124.506 26.0211 124.506 24.3958C124.506 22.7704 124.154 21.3138 123.448 20.0258C122.743 18.7071 121.762 17.6798 120.504 16.9438C119.278 16.1771 117.898 15.7938 116.364 15.7938C114.831 15.7938 113.436 16.1771 112.178 16.9438C110.952 17.6798 109.97 18.7071 109.234 20.0258C108.529 21.3138 108.176 22.7704 108.176 24.3958C108.176 26.0211 108.529 27.4931 109.234 28.8118C109.97 30.1304 110.952 31.1731 112.178 31.9398C113.436 32.6758 114.831 33.0438 116.364 33.0438Z" fill="white"/>
<path d="M159.886 24.0278C159.886 24.6104 159.687 25.1011 159.288 25.4998C158.889 25.8678 158.383 26.0518 157.77 26.0518H140.29C140.627 28.1984 141.593 29.9311 143.188 31.2498C144.813 32.5684 146.791 33.2278 149.122 33.2278C150.042 33.2278 150.993 33.0591 151.974 32.7218C152.986 32.3844 153.814 31.9704 154.458 31.4798C154.887 31.1424 155.393 30.9738 155.976 30.9738C156.559 30.9738 157.019 31.1271 157.356 31.4338C157.908 31.8938 158.184 32.4151 158.184 32.9978C158.184 33.5498 157.939 34.0098 157.448 34.3778C156.405 35.2058 155.102 35.8804 153.538 36.4018C152.005 36.9231 150.533 37.1838 149.122 37.1838C146.607 37.1838 144.353 36.6471 142.36 35.5738C140.367 34.4698 138.803 32.9518 137.668 31.0198C136.564 29.0878 136.012 26.8951 136.012 24.4418C136.012 21.9884 136.533 19.7958 137.576 17.8638C138.649 15.9011 140.121 14.3831 141.992 13.3098C143.893 12.2058 146.04 11.6538 148.432 11.6538C150.793 11.6538 152.833 12.1751 154.55 13.2178C156.267 14.2604 157.586 15.7171 158.506 17.5878C159.426 19.4584 159.886 21.6051 159.886 24.0278ZM148.432 15.6098C146.193 15.6098 144.369 16.2231 142.958 17.4498C141.578 18.6764 140.704 20.3171 140.336 22.3718H155.654C155.378 20.3171 154.611 18.6764 153.354 17.4498C152.097 16.2231 150.456 15.6098 148.432 15.6098Z" fill="white"/>
<path d="M175.024 37.1838C172.939 37.1838 170.976 36.8618 169.136 36.2178C167.296 35.5738 165.855 34.7304 164.812 33.6878C164.414 33.2891 164.214 32.8138 164.214 32.2618C164.214 31.5258 164.521 30.9278 165.134 30.4678C165.717 30.0384 166.254 29.8238 166.744 29.8238C167.358 29.8238 167.94 30.0998 168.492 30.6518C169.075 31.2958 169.949 31.8631 171.114 32.3538C172.28 32.8138 173.522 33.0438 174.84 33.0438C176.588 33.0438 177.938 32.7524 178.888 32.1698C179.87 31.5871 180.36 30.8051 180.36 29.8238C180.36 28.8731 179.885 28.0911 178.934 27.4778C177.984 26.8338 176.374 26.2971 174.104 25.8678C168.216 24.7331 165.272 22.3104 165.272 18.5998C165.272 17.0971 165.717 15.8244 166.606 14.7818C167.496 13.7391 168.661 12.9571 170.102 12.4358C171.544 11.9144 173.077 11.6538 174.702 11.6538C176.696 11.6538 178.474 11.9758 180.038 12.6198C181.633 13.2638 182.89 14.1531 183.81 15.2878C184.209 15.7784 184.408 16.2691 184.408 16.7598C184.408 17.2811 184.148 17.7564 183.626 18.1858C183.289 18.4311 182.86 18.5538 182.338 18.5538C181.541 18.5538 180.82 18.2624 180.176 17.6798C179.41 16.9744 178.597 16.4838 177.738 16.2078C176.88 15.9011 175.837 15.7478 174.61 15.7478C173.2 15.7478 172.034 15.9931 171.114 16.4838C170.225 16.9438 169.78 17.6031 169.78 18.4618C169.78 19.0751 169.934 19.5964 170.24 20.0258C170.547 20.4244 171.13 20.8078 171.988 21.1758C172.847 21.5131 174.089 21.8504 175.714 22.1878C179.057 22.8624 181.418 23.7978 182.798 24.9938C184.209 26.1898 184.914 27.7384 184.914 29.6398C184.914 31.0504 184.531 32.3384 183.764 33.5038C182.998 34.6384 181.863 35.5431 180.36 36.2178C178.888 36.8618 177.11 37.1838 175.024 37.1838Z" fill="white"/>
<path d="M209.845 33.6878C210.182 34.0558 210.351 34.5158 210.351 35.0678C210.351 35.7424 210.075 36.3098 209.523 36.7698C209.063 37.1378 208.572 37.3218 208.051 37.3218C207.376 37.3218 206.824 37.0458 206.395 36.4938L197.655 25.6838L195.355 27.7078V34.7458C195.355 35.4204 195.14 35.9724 194.711 36.4018C194.312 36.8004 193.776 36.9998 193.101 36.9998C192.426 36.9998 191.874 36.8004 191.445 36.4018C191.046 35.9724 190.847 35.4204 190.847 34.7458V3.32773C190.847 2.65307 191.046 2.1164 191.445 1.71773C191.874 1.2884 192.426 1.07373 193.101 1.07373C193.776 1.07373 194.312 1.2884 194.711 1.71773C195.14 2.1164 195.355 2.65307 195.355 3.32773V22.0498L206.533 12.0678C206.932 11.6691 207.407 11.4698 207.959 11.4698C208.603 11.4698 209.124 11.7151 209.523 12.2058C209.922 12.6044 210.121 13.0798 210.121 13.6318C210.121 14.2758 209.876 14.7971 209.385 15.1958L200.921 22.7398L209.845 33.6878Z" fill="white"/>
<path d="M15.996 5.30573C14.2786 5.30573 12.8986 5.87307 11.856 7.00773C10.8133 8.1424 10.292 9.64507 10.292 11.5158V12.7578H14.984C15.628 12.7578 16.1493 12.9418 16.548 13.3098C16.9466 13.6778 17.146 14.1684 17.146 14.7818C17.146 15.3338 16.9466 15.7938 16.548 16.1618C16.1493 16.5298 15.628 16.7138 14.984 16.7138H10.292V34.6538C10.292 35.3591 10.0773 35.9264 9.64796 36.3558C9.21863 36.7851 8.62063 36.9998 7.85396 36.9998C7.24063 36.9998 6.70396 36.7851 6.24396 36.3558C5.81463 35.9264 5.59996 35.3591 5.59996 34.6538V16.7138H3.62196C2.97796 16.7138 2.45663 16.5298 2.05796 16.1618C1.65929 15.7938 1.45996 15.3338 1.45996 14.7818C1.45996 14.1684 1.65929 13.6778 2.05796 13.3098C2.45663 12.9418 2.97796 12.7578 3.62196 12.7578H5.59996V11.9758C5.59996 9.7984 6.02929 7.89707 6.88796 6.27173C7.77729 4.61573 9.00396 3.34307 10.568 2.45373C12.1626 1.53373 13.972 1.07373 15.996 1.07373C16.6706 1.07373 17.2226 1.27307 17.652 1.67174C18.112 2.0704 18.342 2.5764 18.342 3.18973C18.342 3.80307 18.112 4.30907 17.652 4.70773C17.2226 5.1064 16.6706 5.30573 15.996 5.30573Z" stroke="white" stroke-width="2"/>
<path d="M34.3585 11.562C35.9838 11.562 37.2565 11.8073 38.1765 12.298C39.0965 12.7886 39.5565 13.402 39.5565 14.138C39.5565 14.3526 39.5412 14.506 39.5105 14.598C39.2345 15.5793 38.6212 16.07 37.6705 16.07C37.5172 16.07 37.2872 16.0393 36.9805 15.978C35.7538 15.7633 34.7572 15.656 33.9905 15.656C31.7825 15.656 30.0038 16.162 28.6545 17.174C27.3052 18.186 26.6305 19.5506 26.6305 21.268V34.7C26.6305 35.436 26.4312 36.0033 26.0325 36.402C25.6645 36.8006 25.0972 37 24.3305 37C23.5945 37 23.0272 36.816 22.6285 36.448C22.2298 36.0493 22.0305 35.4666 22.0305 34.7V14.138C22.0305 13.402 22.2298 12.8346 22.6285 12.436C23.0272 12.0373 23.5945 11.838 24.3305 11.838C25.8638 11.838 26.6305 12.6046 26.6305 14.138V15.012C27.5505 13.9386 28.6852 13.0953 30.0345 12.482C31.3838 11.8686 32.8252 11.562 34.3585 11.562Z" stroke="white" stroke-width="2"/>
<path d="M53.968 37.1838C51.5147 37.1838 49.322 36.6471 47.39 35.5738C45.458 34.4698 43.9553 32.9518 42.882 31.0198C41.8087 29.0878 41.272 26.8951 41.272 24.4418C41.272 21.9578 41.8087 19.7498 42.882 17.8178C43.9553 15.8858 45.458 14.3831 47.39 13.3098C49.322 12.2058 51.5147 11.6538 53.968 11.6538C56.3907 11.6538 58.5527 12.2058 60.454 13.3098C62.386 14.3831 63.8887 15.8858 64.962 17.8178C66.066 19.7498 66.618 21.9578 66.618 24.4418C66.618 26.8951 66.0813 29.0878 65.008 31.0198C63.9346 32.9518 62.432 34.4698 60.5 35.5738C58.5987 36.6471 56.4213 37.1838 53.968 37.1838ZM53.968 33.0438C55.532 33.0438 56.9273 32.6758 58.154 31.9398C59.4113 31.2038 60.3773 30.1918 61.052 28.9038C61.7573 27.5851 62.11 26.0978 62.11 24.4418C62.11 22.7858 61.7573 21.2984 61.052 19.9798C60.3773 18.6611 59.4113 17.6338 58.154 16.8978C56.9273 16.1618 55.532 15.7938 53.968 15.7938C52.404 15.7938 50.9933 16.1618 49.736 16.8978C48.5093 17.6338 47.5433 18.6611 46.838 19.9798C46.1326 21.2984 45.78 22.7858 45.78 24.4418C45.78 26.0978 46.1326 27.5851 46.838 28.9038C47.5433 30.1918 48.5093 31.2038 49.736 31.9398C50.9933 32.6758 52.404 33.0438 53.968 33.0438Z" stroke="white" stroke-width="2"/>
<path d="M86.1128 11.6079C88.2288 11.6079 90.1301 12.0679 91.8168 12.9879C93.5035 13.9079 94.8221 15.2572 95.7728 17.0359C96.7235 18.7839 97.1988 20.8999 97.1988 23.3839V34.6999C97.1988 35.3745 96.9688 35.9419 96.5088 36.4019C96.0795 36.8312 95.5275 37.0459 94.8528 37.0459C94.1781 37.0459 93.6108 36.8312 93.1508 36.4019C92.7215 35.9419 92.5068 35.3745 92.5068 34.6999V23.3839C92.5068 20.8999 91.8321 19.0292 90.4828 17.7719C89.1641 16.4839 87.4008 15.8399 85.1928 15.8399C83.9048 15.8399 82.7241 16.1005 81.6508 16.6219C80.6081 17.1432 79.7801 17.8485 79.1668 18.7379C78.5841 19.6272 78.2928 20.6239 78.2928 21.7279V34.6999C78.2928 35.3745 78.0781 35.9419 77.6488 36.4019C77.2195 36.8312 76.6521 37.0459 75.9468 37.0459C75.2721 37.0459 74.7048 36.8312 74.2448 36.4019C73.8155 35.9419 73.6008 35.3745 73.6008 34.6999V14.1839C73.6008 13.4785 73.8155 12.9112 74.2448 12.4819C74.7048 12.0525 75.2721 11.8379 75.9468 11.8379C76.6521 11.8379 77.2195 12.0525 77.6488 12.4819C78.0781 12.9112 78.2928 13.4785 78.2928 14.1839V14.6899C79.2741 13.7085 80.4395 12.9572 81.7888 12.4359C83.1381 11.8839 84.5795 11.6079 86.1128 11.6079Z" stroke="white" stroke-width="2"/>
<path d="M126.668 1.07373C127.374 1.07373 127.941 1.2884 128.37 1.71773C128.8 2.14707 129.014 2.7144 129.014 3.41973V24.3958C129.014 26.7878 128.447 28.9651 127.312 30.9278C126.208 32.8598 124.69 34.3931 122.758 35.5278C120.857 36.6318 118.726 37.1838 116.364 37.1838C114.003 37.1838 111.841 36.6318 109.878 35.5278C107.946 34.3931 106.428 32.8598 105.324 30.9278C104.22 28.9651 103.668 26.7878 103.668 24.3958C103.668 22.0038 104.174 19.8418 105.186 17.9098C106.229 15.9471 107.64 14.4138 109.418 13.3098C111.228 12.2058 113.236 11.6538 115.444 11.6538C117.223 11.6538 118.879 12.0218 120.412 12.7578C121.946 13.4938 123.249 14.5211 124.322 15.8398V3.41973C124.322 2.7144 124.537 2.14707 124.966 1.71773C125.426 1.2884 125.994 1.07373 126.668 1.07373ZM116.364 33.0438C117.898 33.0438 119.278 32.6758 120.504 31.9398C121.762 31.1731 122.743 30.1304 123.448 28.8118C124.154 27.4931 124.506 26.0211 124.506 24.3958C124.506 22.7704 124.154 21.3138 123.448 20.0258C122.743 18.7071 121.762 17.6798 120.504 16.9438C119.278 16.1771 117.898 15.7938 116.364 15.7938C114.831 15.7938 113.436 16.1771 112.178 16.9438C110.952 17.6798 109.97 18.7071 109.234 20.0258C108.529 21.3138 108.176 22.7704 108.176 24.3958C108.176 26.0211 108.529 27.4931 109.234 28.8118C109.97 30.1304 110.952 31.1731 112.178 31.9398C113.436 32.6758 114.831 33.0438 116.364 33.0438Z" stroke="white" stroke-width="2"/>
<path d="M159.886 24.0278C159.886 24.6104 159.687 25.1011 159.288 25.4998C158.889 25.8678 158.383 26.0518 157.77 26.0518H140.29C140.627 28.1984 141.593 29.9311 143.188 31.2498C144.813 32.5684 146.791 33.2278 149.122 33.2278C150.042 33.2278 150.993 33.0591 151.974 32.7218C152.986 32.3844 153.814 31.9704 154.458 31.4798C154.887 31.1424 155.393 30.9738 155.976 30.9738C156.559 30.9738 157.019 31.1271 157.356 31.4338C157.908 31.8938 158.184 32.4151 158.184 32.9978C158.184 33.5498 157.939 34.0098 157.448 34.3778C156.405 35.2058 155.102 35.8804 153.538 36.4018C152.005 36.9231 150.533 37.1838 149.122 37.1838C146.607 37.1838 144.353 36.6471 142.36 35.5738C140.367 34.4698 138.803 32.9518 137.668 31.0198C136.564 29.0878 136.012 26.8951 136.012 24.4418C136.012 21.9884 136.533 19.7958 137.576 17.8638C138.649 15.9011 140.121 14.3831 141.992 13.3098C143.893 12.2058 146.04 11.6538 148.432 11.6538C150.793 11.6538 152.833 12.1751 154.55 13.2178C156.267 14.2604 157.586 15.7171 158.506 17.5878C159.426 19.4584 159.886 21.6051 159.886 24.0278ZM148.432 15.6098C146.193 15.6098 144.369 16.2231 142.958 17.4498C141.578 18.6764 140.704 20.3171 140.336 22.3718H155.654C155.378 20.3171 154.611 18.6764 153.354 17.4498C152.097 16.2231 150.456 15.6098 148.432 15.6098Z" stroke="white" stroke-width="2"/>
<path d="M175.024 37.1838C172.939 37.1838 170.976 36.8618 169.136 36.2178C167.296 35.5738 165.855 34.7304 164.812 33.6878C164.414 33.2891 164.214 32.8138 164.214 32.2618C164.214 31.5258 164.521 30.9278 165.134 30.4678C165.717 30.0384 166.254 29.8238 166.744 29.8238C167.358 29.8238 167.94 30.0998 168.492 30.6518C169.075 31.2958 169.949 31.8631 171.114 32.3538C172.28 32.8138 173.522 33.0438 174.84 33.0438C176.588 33.0438 177.938 32.7524 178.888 32.1698C179.87 31.5871 180.36 30.8051 180.36 29.8238C180.36 28.8731 179.885 28.0911 178.934 27.4778C177.984 26.8338 176.374 26.2971 174.104 25.8678C168.216 24.7331 165.272 22.3104 165.272 18.5998C165.272 17.0971 165.717 15.8244 166.606 14.7818C167.496 13.7391 168.661 12.9571 170.102 12.4358C171.544 11.9144 173.077 11.6538 174.702 11.6538C176.696 11.6538 178.474 11.9758 180.038 12.6198C181.633 13.2638 182.89 14.1531 183.81 15.2878C184.209 15.7784 184.408 16.2691 184.408 16.7598C184.408 17.2811 184.148 17.7564 183.626 18.1858C183.289 18.4311 182.86 18.5538 182.338 18.5538C181.541 18.5538 180.82 18.2624 180.176 17.6798C179.41 16.9744 178.597 16.4838 177.738 16.2078C176.88 15.9011 175.837 15.7478 174.61 15.7478C173.2 15.7478 172.034 15.9931 171.114 16.4838C170.225 16.9438 169.78 17.6031 169.78 18.4618C169.78 19.0751 169.934 19.5964 170.24 20.0258C170.547 20.4244 171.13 20.8078 171.988 21.1758C172.847 21.5131 174.089 21.8504 175.714 22.1878C179.057 22.8624 181.418 23.7978 182.798 24.9938C184.209 26.1898 184.914 27.7384 184.914 29.6398C184.914 31.0504 184.531 32.3384 183.764 33.5038C182.998 34.6384 181.863 35.5431 180.36 36.2178C178.888 36.8618 177.11 37.1838 175.024 37.1838Z" stroke="white" stroke-width="2"/>
<path d="M209.845 33.6878C210.182 34.0558 210.351 34.5158 210.351 35.0678C210.351 35.7424 210.075 36.3098 209.523 36.7698C209.063 37.1378 208.572 37.3218 208.051 37.3218C207.376 37.3218 206.824 37.0458 206.395 36.4938L197.655 25.6838L195.355 27.7078V34.7458C195.355 35.4204 195.14 35.9724 194.711 36.4018C194.312 36.8004 193.776 36.9998 193.101 36.9998C192.426 36.9998 191.874 36.8004 191.445 36.4018C191.046 35.9724 190.847 35.4204 190.847 34.7458V3.32773C190.847 2.65307 191.046 2.1164 191.445 1.71773C191.874 1.2884 192.426 1.07373 193.101 1.07373C193.776 1.07373 194.312 1.2884 194.711 1.71773C195.14 2.1164 195.355 2.65307 195.355 3.32773V22.0498L206.533 12.0678C206.932 11.6691 207.407 11.4698 207.959 11.4698C208.603 11.4698 209.124 11.7151 209.523 12.2058C209.922 12.6044 210.121 13.0798 210.121 13.6318C210.121 14.2758 209.876 14.7971 209.385 15.1958L200.921 22.7398L209.845 33.6878Z" stroke="white" stroke-width="2"/>
</g>
</g>
<defs>
<clipPath id="clip0_745_2103">
<rect width="212" height="39" fill="white"/>
</clipPath>
</defs>
</svg>
