<svg xmlns="http://www.w3.org/2000/svg" width="11478.383" height="3248.483" viewBox="0 0 11478.383 3248.483">
  <g id="nubibo-logo-white" transform="translate(2062.486 10855.334)">
    <path id="Subtraction_4" data-name="Subtraction 4" d="M1949.039,1558.938c-44.307,0-71.2-2.646-71.47-2.673H515.61l132.062-137.3L1358.3,683.315H797.7c-8.882.5-22.665,1.157-39.731,1.157-13,0-26.235-.389-39.326-1.157H677.318v-3.007A846.985,846.985,0,0,1,508.7,646.24c-68.862-21.509-133.069-51.815-190.835-90.075C168.577,457.287,61.631,305.927,0,106.292,17.739,70.286,36.934,34.526,57.051,0,188.2,195.5,417.135,302.328,737.513,317.5H2195.6L2063.535,454.8,1352.009,1190.45h626.179c610.528-30.5,779.356-359.853,813.477-630.778a1876.408,1876.408,0,0,1,33.488,336.163c-11.864,64.785-29.5,125.948-52.425,181.793A746.045,746.045,0,0,1,2693.62,1223a697.168,697.168,0,0,1-99.151,112.96,734.356,734.356,0,0,1-112.561,84.57c-157.083,96.24-332.292,126.393-451.614,134.741v1h-1.8C2001.733,1558.039,1975,1558.938,1949.039,1558.938Z" transform="translate(6590.744 -10181.635)" fill="#fff"/>
    <path id="Path_70" data-name="Path 70" d="M686.369,2829.545c167.1-109.6,297.367-319.826,313.538-700.743V670.717L1122.986,802.78,1782.4,1514.3V888.127C1752.756,226.015,1414.063,71.492,1115.8,67,471.654,251.17,0,844.106,0,1547.544,0,2082.085,273.11,2553.74,686.369,2829.545Z" transform="translate(-2062.486 -10862.141)" fill="#fff"/>
    <path id="Path_69" data-name="Path 69" d="M1627.614,0A1538.864,1538.864,0,0,0,1412.9,15.273c649.535,4.492,766.325,541.728,783.395,813.94h.9v1.8c5.39,90.737,0,150.929,0,150.929h0V2343.9l-123.08-132.063L1414.7,1501.207V2061.8a755.44,755.44,0,0,1,0,79.058v41.326H1412c-17.968,202.137-114.1,560.594-557,690.861,226.394,132.063,490.52,208.426,772.614,208.426,850.775,0,1540.736-689.962,1540.736-1540.736S2478.389,0,1627.614,0Z" transform="translate(-2149.364 -10855.334)" fill="#fff"/>
    <path id="Path_67" data-name="Path 67" d="M5640,984h212.918c58.395,0,106.008,16.171,149.129,47.614,36.836,36.834,53.008,74.566,53.008,127.571v695.352c0,85.348,31.441,143.744,89.84,181.476,58.395,36.833,122.18,58.395,196.746,58.395s138.352-21.562,191.355-58.395c58.395-37.732,85.348-96.128,85.348-181.476V984h424.938v802.261c0,228.19-69.176,388.1-212.918,461.772-142.844,79.956-302.754,122.18-477.941,132.961-175.187,0-340.488-42.224-488.723-122.181-149.133-74.566-223.7-233.581-223.7-472.553Z" transform="translate(-2635.574 -10955.318)" fill="#fff"/>
    <path id="Path_68" data-name="Path 68" d="M5351.385,2330.994h-212.92c-58.395,0-106.01-15.273-148.234-47.614-37.73-36.834-53-73.668-53-127.571V1460.455c0-85.347-32.344-143.742-90.736-180.575-58.4-37.732-122.18-58.4-196.748-58.4s-137.453,20.663-191.355,58.4c-58.4,36.833-84.449,95.229-84.449,180.575v870.539H3949V1529.631c0-229.089,68.277-388.1,212.02-462.67C4304.76,987.9,4463.777,944.78,4638.961,934c175.186,0,340.488,42.224,489.623,122.181,148.232,74.566,222.8,234.479,222.8,473.451Z" transform="translate(-2463.751 -10950.236)" fill="#fff"/>
    <path id="Path_64" data-name="Path 64" d="M7746.766,1104.851c53.9-63.786,116.793-116.791,196.746-159.015,74.566-32.342,164.406-53.9,265.926-53.9,191.355,0,344.98,69.176,467.16,202.137,116.793,127.571,176.086,302.757,176.086,515.675,0,222.8-59.293,392.6-176.086,520.167-63.785,63.785-142.844,111.4-244.359,138.352-100.617,31.444-202.141,47.614-308.148,47.614-191.355,0-371.93-42.224-536.34-127.571-165.3-90.737-249.75-249.752-249.75-494.114V696.084c0-48.513,20.664-85.347,62.887-123.079,37.73-36.834,85.348-53,143.742-53h202.137Zm5.395,494.114c0,132.961,26.949,238.971,90.734,308.147,58.4,73.668,148.234,111.4,259.633,111.4,106.91,0,191.355-37.732,250.652-111.4,57.5-69.176,89.84-175.186,89.84-308.147,0-127.572-32.344-222.8-96.125-291.977-62.895-69.176-148.238-106.908-259.637-106.908-101.52,0-185.965,37.732-244.363,111.4C7779.109,1376.165,7752.16,1471.393,7752.16,1598.965Z" transform="translate(-2808.11 -10908.171)" fill="#fff"/>
    <path id="Path_65" data-name="Path 65" d="M9144,480.528C9144,549.7,9160.168,608.1,9197,644.933c36.836,37.732,85.344,53.9,154.523,53.9,63.781,0,111.406-16.171,149.133-53.9C9533,608.1,9548.277,549.7,9548.277,480.528c0-63.786-15.273-116.791-53.008-154.523-36.836-36.834-90.734-53-154.523-53-58.4,0-106.906,16.171-143.742,58.4C9160.168,363.737,9144,416.742,9144,480.528Z" transform="translate(-2991.617 -10883.071)" fill="#fff"/>
    <path id="Path_66" data-name="Path 66" d="M9144,2343.807V954h218.313c53,0,96.125,16.171,138.352,53.9,36.828,31.444,58.391,73.668,58.391,122.181V2343.807Z" transform="translate(-2991.617 -10952.271)" fill="#fff"/>
    <path id="Path_82" data-name="Path 82" d="M369.132-611.1H72.459V74.284H231.076v-188.97H369.132c183.1,0,297.653-94.975,297.653-247.717C666.785-516.125,552.228-611.1,369.132-611.1ZM360.32-243.93H231.076V-481.856H360.32c96.933,0,145.889,44.06,145.889,119.453C506.209-287.99,457.253-243.93,360.32-243.93ZM1257.195,74.284h166.45L1117.18-611.1H960.521L655.036,74.284H817.57L878.275-72.584h318.214Zm-328.005-267.3,108.682-262.4,108.682,262.4Zm1172.986,267.3-153.722-220.3c89.1-38.186,140.994-113.578,140.994-216.386,0-153.722-114.557-248.7-297.653-248.7H1495.121V74.284h158.618V-116.644h145.889L1931.808,74.284ZM1928.871-362.4c0,74.413-48.956,119.453-145.889,119.453H1653.738V-481.856h129.244C1879.915-481.856,1928.871-437.8,1928.871-362.4ZM2346.956,74.284h158.617v-556.14H2724.9V-611.1H2127.633v129.244h219.323ZM3282.016-611.1v416.126L2941.282-611.1h-131.2V74.284h156.659V-341.842L3308.452,74.284h130.223V-611.1ZM3758.847-53V-211.619h318.214V-334.988H3758.847V-483.814h360.317V-611.1H3601.209V74.284h530.683V-53ZM4865.253,74.284l-153.721-220.3c89.1-38.186,140.993-113.578,140.993-216.386,0-153.722-114.557-248.7-297.653-248.7H4258.2V74.284h158.618V-116.644h145.889L4694.887,74.284ZM4691.949-362.4c0,74.413-48.956,119.453-145.889,119.453H4416.816V-481.856h129.244C4642.993-481.856,4691.949-437.8,4691.949-362.4Z" transform="translate(4507.541 -7681.135)" fill="#fff"/>
  </g>
</svg>
