<svg width="212" height="39" viewBox="0 0 212 39" fill="none" xmlns="http://www.w3.org/2000/svg">
<mask id="path-1-outside-1_102_455" maskUnits="userSpaceOnUse" x="0.459961" y="0.0739746" width="211" height="39" fill="black">
<rect fill="white" x="0.459961" y="0.0739746" width="211" height="39"/>
<path d="M15.996 5.30597C14.2786 5.30597 12.8986 5.87331 11.856 7.00797C10.8133 8.14264 10.292 9.64531 10.292 11.516V12.758H14.984C15.628 12.758 16.1493 12.942 16.548 13.31C16.9466 13.678 17.146 14.1686 17.146 14.782C17.146 15.334 16.9466 15.794 16.548 16.162C16.1493 16.53 15.628 16.714 14.984 16.714H10.292V34.654C10.292 35.3593 10.0773 35.9266 9.64796 36.356C9.21863 36.7853 8.62063 37 7.85396 37C7.24063 37 6.70396 36.7853 6.24396 36.356C5.81463 35.9266 5.59996 35.3593 5.59996 34.654V16.714H3.62196C2.97796 16.714 2.45663 16.53 2.05796 16.162C1.65929 15.794 1.45996 15.334 1.45996 14.782C1.45996 14.1686 1.65929 13.678 2.05796 13.31C2.45663 12.942 2.97796 12.758 3.62196 12.758H5.59996V11.976C5.59996 9.79864 6.02929 7.89731 6.88796 6.27197C7.77729 4.61597 9.00396 3.34331 10.568 2.45397C12.1626 1.53397 13.972 1.07397 15.996 1.07397C16.6706 1.07397 17.2226 1.27331 17.652 1.67198C18.112 2.07064 18.342 2.57664 18.342 3.18997C18.342 3.80331 18.112 4.30931 17.652 4.70797C17.2226 5.10664 16.6706 5.30597 15.996 5.30597Z"/>
<path d="M34.3586 11.562C35.9839 11.562 37.2566 11.8073 38.1766 12.298C39.0966 12.7886 39.5566 13.402 39.5566 14.138C39.5566 14.3526 39.5413 14.506 39.5106 14.598C39.2346 15.5793 38.6213 16.07 37.6706 16.07C37.5173 16.07 37.2873 16.0393 36.9806 15.978C35.7539 15.7633 34.7573 15.656 33.9906 15.656C31.7826 15.656 30.0039 16.162 28.6546 17.174C27.3053 18.186 26.6306 19.5506 26.6306 21.268V34.7C26.6306 35.436 26.4313 36.0033 26.0326 36.402C25.6646 36.8006 25.0973 37 24.3306 37C23.5946 37 23.0273 36.816 22.6286 36.448C22.2299 36.0493 22.0306 35.4666 22.0306 34.7V14.138C22.0306 13.402 22.2299 12.8346 22.6286 12.436C23.0273 12.0373 23.5946 11.838 24.3306 11.838C25.8639 11.838 26.6306 12.6046 26.6306 14.138V15.012C27.5506 13.9386 28.6853 13.0953 30.0346 12.482C31.3839 11.8686 32.8253 11.562 34.3586 11.562Z"/>
<path d="M53.9679 37.184C51.5146 37.184 49.3219 36.6473 47.3899 35.574C45.4579 34.47 43.9552 32.952 42.8819 31.02C41.8086 29.088 41.2719 26.8953 41.2719 24.442C41.2719 21.958 41.8086 19.75 42.8819 17.818C43.9552 15.886 45.4579 14.3833 47.3899 13.31C49.3219 12.206 51.5146 11.654 53.9679 11.654C56.3906 11.654 58.5526 12.206 60.4539 13.31C62.3859 14.3833 63.8886 15.886 64.9619 17.818C66.0659 19.75 66.6179 21.958 66.6179 24.442C66.6179 26.8953 66.0812 29.088 65.0079 31.02C63.9345 32.952 62.4319 34.47 60.4999 35.574C58.5986 36.6473 56.4212 37.184 53.9679 37.184ZM53.9679 33.044C55.5319 33.044 56.9272 32.676 58.1539 31.94C59.4112 31.204 60.3772 30.192 61.0519 28.904C61.7572 27.5853 62.1099 26.098 62.1099 24.442C62.1099 22.786 61.7572 21.2986 61.0519 19.98C60.3772 18.6613 59.4112 17.634 58.1539 16.898C56.9272 16.162 55.5319 15.794 53.9679 15.794C52.4039 15.794 50.9932 16.162 49.7359 16.898C48.5092 17.634 47.5432 18.6613 46.8379 19.98C46.1325 21.2986 45.7799 22.786 45.7799 24.442C45.7799 26.098 46.1325 27.5853 46.8379 28.904C47.5432 30.192 48.5092 31.204 49.7359 31.94C50.9932 32.676 52.4039 33.044 53.9679 33.044Z"/>
<path d="M86.1129 11.608C88.2289 11.608 90.1302 12.068 91.8169 12.988C93.5036 13.908 94.8222 15.2573 95.7729 17.036C96.7236 18.784 97.1989 20.9 97.1989 23.384V34.7C97.1989 35.3746 96.9689 35.942 96.5089 36.402C96.0796 36.8313 95.5276 37.046 94.8529 37.046C94.1782 37.046 93.6109 36.8313 93.1509 36.402C92.7216 35.942 92.5069 35.3746 92.5069 34.7V23.384C92.5069 20.9 91.8322 19.0293 90.4829 17.772C89.1642 16.484 87.4009 15.84 85.1929 15.84C83.9049 15.84 82.7242 16.1006 81.6509 16.622C80.6082 17.1433 79.7802 17.8486 79.1669 18.738C78.5842 19.6273 78.2929 20.624 78.2929 21.728V34.7C78.2929 35.3746 78.0782 35.942 77.6489 36.402C77.2196 36.8313 76.6522 37.046 75.9469 37.046C75.2722 37.046 74.7049 36.8313 74.2449 36.402C73.8156 35.942 73.6009 35.3746 73.6009 34.7V14.184C73.6009 13.4786 73.8156 12.9113 74.2449 12.482C74.7049 12.0526 75.2722 11.838 75.9469 11.838C76.6522 11.838 77.2196 12.0526 77.6489 12.482C78.0782 12.9113 78.2929 13.4786 78.2929 14.184V14.69C79.2742 13.7086 80.4396 12.9573 81.7889 12.436C83.1382 11.884 84.5796 11.608 86.1129 11.608Z"/>
<path d="M126.668 1.07397C127.374 1.07397 127.941 1.28864 128.37 1.71797C128.8 2.14731 129.014 2.71464 129.014 3.41997V24.396C129.014 26.788 128.447 28.9653 127.312 30.928C126.208 32.86 124.69 34.3933 122.758 35.528C120.857 36.632 118.726 37.184 116.364 37.184C114.003 37.184 111.841 36.632 109.878 35.528C107.946 34.3933 106.428 32.86 105.324 30.928C104.22 28.9653 103.668 26.788 103.668 24.396C103.668 22.004 104.174 19.842 105.186 17.91C106.229 15.9473 107.64 14.414 109.418 13.31C111.228 12.206 113.236 11.654 115.444 11.654C117.223 11.654 118.879 12.022 120.412 12.758C121.946 13.494 123.249 14.5213 124.322 15.84V3.41997C124.322 2.71464 124.537 2.14731 124.966 1.71797C125.426 1.28864 125.994 1.07397 126.668 1.07397ZM116.364 33.044C117.898 33.044 119.278 32.676 120.504 31.94C121.762 31.1733 122.743 30.1306 123.448 28.812C124.154 27.4933 124.506 26.0213 124.506 24.396C124.506 22.7706 124.154 21.314 123.448 20.026C122.743 18.7073 121.762 17.68 120.504 16.944C119.278 16.1773 117.898 15.794 116.364 15.794C114.831 15.794 113.436 16.1773 112.178 16.944C110.952 17.68 109.97 18.7073 109.234 20.026C108.529 21.314 108.176 22.7706 108.176 24.396C108.176 26.0213 108.529 27.4933 109.234 28.812C109.97 30.1306 110.952 31.1733 112.178 31.94C113.436 32.676 114.831 33.044 116.364 33.044Z"/>
<path d="M159.886 24.028C159.886 24.6106 159.687 25.1013 159.288 25.5C158.889 25.868 158.383 26.052 157.77 26.052H140.29C140.627 28.1986 141.593 29.9313 143.188 31.25C144.813 32.5686 146.791 33.228 149.122 33.228C150.042 33.228 150.993 33.0593 151.974 32.722C152.986 32.3846 153.814 31.9706 154.458 31.48C154.887 31.1426 155.393 30.974 155.976 30.974C156.559 30.974 157.019 31.1273 157.356 31.434C157.908 31.894 158.184 32.4153 158.184 32.998C158.184 33.55 157.939 34.01 157.448 34.378C156.405 35.206 155.102 35.8806 153.538 36.402C152.005 36.9233 150.533 37.184 149.122 37.184C146.607 37.184 144.353 36.6473 142.36 35.574C140.367 34.47 138.803 32.952 137.668 31.02C136.564 29.088 136.012 26.8953 136.012 24.442C136.012 21.9886 136.533 19.796 137.576 17.864C138.649 15.9013 140.121 14.3833 141.992 13.31C143.893 12.206 146.04 11.654 148.432 11.654C150.793 11.654 152.833 12.1753 154.55 13.218C156.267 14.2606 157.586 15.7173 158.506 17.588C159.426 19.4586 159.886 21.6053 159.886 24.028ZM148.432 15.61C146.193 15.61 144.369 16.2233 142.958 17.45C141.578 18.6766 140.704 20.3173 140.336 22.372H155.654C155.378 20.3173 154.611 18.6766 153.354 17.45C152.097 16.2233 150.456 15.61 148.432 15.61Z"/>
<path d="M175.024 37.184C172.939 37.184 170.976 36.862 169.136 36.218C167.296 35.574 165.855 34.7306 164.812 33.688C164.414 33.2893 164.214 32.814 164.214 32.262C164.214 31.526 164.521 30.928 165.134 30.468C165.717 30.0386 166.254 29.824 166.744 29.824C167.358 29.824 167.94 30.1 168.492 30.652C169.075 31.296 169.949 31.8633 171.114 32.354C172.28 32.814 173.522 33.044 174.84 33.044C176.588 33.044 177.938 32.7526 178.888 32.17C179.87 31.5873 180.36 30.8053 180.36 29.824C180.36 28.8733 179.885 28.0913 178.934 27.478C177.984 26.834 176.374 26.2973 174.104 25.868C168.216 24.7333 165.272 22.3106 165.272 18.6C165.272 17.0973 165.717 15.8246 166.606 14.782C167.496 13.7393 168.661 12.9573 170.102 12.436C171.544 11.9146 173.077 11.654 174.702 11.654C176.696 11.654 178.474 11.976 180.038 12.62C181.633 13.264 182.89 14.1533 183.81 15.288C184.209 15.7786 184.408 16.2693 184.408 16.76C184.408 17.2813 184.148 17.7566 183.626 18.186C183.289 18.4313 182.86 18.554 182.338 18.554C181.541 18.554 180.82 18.2626 180.176 17.68C179.41 16.9746 178.597 16.484 177.738 16.208C176.88 15.9013 175.837 15.748 174.61 15.748C173.2 15.748 172.034 15.9933 171.114 16.484C170.225 16.944 169.78 17.6033 169.78 18.462C169.78 19.0753 169.934 19.5966 170.24 20.026C170.547 20.4246 171.13 20.808 171.988 21.176C172.847 21.5133 174.089 21.8506 175.714 22.188C179.057 22.8626 181.418 23.798 182.798 24.994C184.209 26.19 184.914 27.7386 184.914 29.64C184.914 31.0506 184.531 32.3386 183.764 33.504C182.998 34.6386 181.863 35.5433 180.36 36.218C178.888 36.862 177.11 37.184 175.024 37.184Z"/>
<path d="M209.845 33.688C210.182 34.056 210.351 34.516 210.351 35.068C210.351 35.7426 210.075 36.31 209.523 36.77C209.063 37.138 208.572 37.322 208.051 37.322C207.376 37.322 206.824 37.046 206.395 36.494L197.655 25.684L195.355 27.708V34.746C195.355 35.4206 195.14 35.9726 194.711 36.402C194.312 36.8006 193.776 37 193.101 37C192.426 37 191.874 36.8006 191.445 36.402C191.046 35.9726 190.847 35.4206 190.847 34.746V3.32797C190.847 2.65331 191.046 2.11664 191.445 1.71797C191.874 1.28864 192.426 1.07397 193.101 1.07397C193.776 1.07397 194.312 1.28864 194.711 1.71797C195.14 2.11664 195.355 2.65331 195.355 3.32797V22.05L206.533 12.068C206.932 11.6693 207.407 11.47 207.959 11.47C208.603 11.47 209.124 11.7153 209.523 12.206C209.922 12.6046 210.121 13.08 210.121 13.632C210.121 14.276 209.876 14.7973 209.385 15.196L200.921 22.74L209.845 33.688Z"/>
</mask>
<path d="M15.996 5.30597C14.2786 5.30597 12.8986 5.87331 11.856 7.00797C10.8133 8.14264 10.292 9.64531 10.292 11.516V12.758H14.984C15.628 12.758 16.1493 12.942 16.548 13.31C16.9466 13.678 17.146 14.1686 17.146 14.782C17.146 15.334 16.9466 15.794 16.548 16.162C16.1493 16.53 15.628 16.714 14.984 16.714H10.292V34.654C10.292 35.3593 10.0773 35.9266 9.64796 36.356C9.21863 36.7853 8.62063 37 7.85396 37C7.24063 37 6.70396 36.7853 6.24396 36.356C5.81463 35.9266 5.59996 35.3593 5.59996 34.654V16.714H3.62196C2.97796 16.714 2.45663 16.53 2.05796 16.162C1.65929 15.794 1.45996 15.334 1.45996 14.782C1.45996 14.1686 1.65929 13.678 2.05796 13.31C2.45663 12.942 2.97796 12.758 3.62196 12.758H5.59996V11.976C5.59996 9.79864 6.02929 7.89731 6.88796 6.27197C7.77729 4.61597 9.00396 3.34331 10.568 2.45397C12.1626 1.53397 13.972 1.07397 15.996 1.07397C16.6706 1.07397 17.2226 1.27331 17.652 1.67198C18.112 2.07064 18.342 2.57664 18.342 3.18997C18.342 3.80331 18.112 4.30931 17.652 4.70797C17.2226 5.10664 16.6706 5.30597 15.996 5.30597Z" fill="#005AFF"/>
<path d="M34.3586 11.562C35.9839 11.562 37.2566 11.8073 38.1766 12.298C39.0966 12.7886 39.5566 13.402 39.5566 14.138C39.5566 14.3526 39.5413 14.506 39.5106 14.598C39.2346 15.5793 38.6213 16.07 37.6706 16.07C37.5173 16.07 37.2873 16.0393 36.9806 15.978C35.7539 15.7633 34.7573 15.656 33.9906 15.656C31.7826 15.656 30.0039 16.162 28.6546 17.174C27.3053 18.186 26.6306 19.5506 26.6306 21.268V34.7C26.6306 35.436 26.4313 36.0033 26.0326 36.402C25.6646 36.8006 25.0973 37 24.3306 37C23.5946 37 23.0273 36.816 22.6286 36.448C22.2299 36.0493 22.0306 35.4666 22.0306 34.7V14.138C22.0306 13.402 22.2299 12.8346 22.6286 12.436C23.0273 12.0373 23.5946 11.838 24.3306 11.838C25.8639 11.838 26.6306 12.6046 26.6306 14.138V15.012C27.5506 13.9386 28.6853 13.0953 30.0346 12.482C31.3839 11.8686 32.8253 11.562 34.3586 11.562Z" fill="#005AFF"/>
<path d="M53.9679 37.184C51.5146 37.184 49.3219 36.6473 47.3899 35.574C45.4579 34.47 43.9552 32.952 42.8819 31.02C41.8086 29.088 41.2719 26.8953 41.2719 24.442C41.2719 21.958 41.8086 19.75 42.8819 17.818C43.9552 15.886 45.4579 14.3833 47.3899 13.31C49.3219 12.206 51.5146 11.654 53.9679 11.654C56.3906 11.654 58.5526 12.206 60.4539 13.31C62.3859 14.3833 63.8886 15.886 64.9619 17.818C66.0659 19.75 66.6179 21.958 66.6179 24.442C66.6179 26.8953 66.0812 29.088 65.0079 31.02C63.9345 32.952 62.4319 34.47 60.4999 35.574C58.5986 36.6473 56.4212 37.184 53.9679 37.184ZM53.9679 33.044C55.5319 33.044 56.9272 32.676 58.1539 31.94C59.4112 31.204 60.3772 30.192 61.0519 28.904C61.7572 27.5853 62.1099 26.098 62.1099 24.442C62.1099 22.786 61.7572 21.2986 61.0519 19.98C60.3772 18.6613 59.4112 17.634 58.1539 16.898C56.9272 16.162 55.5319 15.794 53.9679 15.794C52.4039 15.794 50.9932 16.162 49.7359 16.898C48.5092 17.634 47.5432 18.6613 46.8379 19.98C46.1325 21.2986 45.7799 22.786 45.7799 24.442C45.7799 26.098 46.1325 27.5853 46.8379 28.904C47.5432 30.192 48.5092 31.204 49.7359 31.94C50.9932 32.676 52.4039 33.044 53.9679 33.044Z" fill="#005AFF"/>
<path d="M86.1129 11.608C88.2289 11.608 90.1302 12.068 91.8169 12.988C93.5036 13.908 94.8222 15.2573 95.7729 17.036C96.7236 18.784 97.1989 20.9 97.1989 23.384V34.7C97.1989 35.3746 96.9689 35.942 96.5089 36.402C96.0796 36.8313 95.5276 37.046 94.8529 37.046C94.1782 37.046 93.6109 36.8313 93.1509 36.402C92.7216 35.942 92.5069 35.3746 92.5069 34.7V23.384C92.5069 20.9 91.8322 19.0293 90.4829 17.772C89.1642 16.484 87.4009 15.84 85.1929 15.84C83.9049 15.84 82.7242 16.1006 81.6509 16.622C80.6082 17.1433 79.7802 17.8486 79.1669 18.738C78.5842 19.6273 78.2929 20.624 78.2929 21.728V34.7C78.2929 35.3746 78.0782 35.942 77.6489 36.402C77.2196 36.8313 76.6522 37.046 75.9469 37.046C75.2722 37.046 74.7049 36.8313 74.2449 36.402C73.8156 35.942 73.6009 35.3746 73.6009 34.7V14.184C73.6009 13.4786 73.8156 12.9113 74.2449 12.482C74.7049 12.0526 75.2722 11.838 75.9469 11.838C76.6522 11.838 77.2196 12.0526 77.6489 12.482C78.0782 12.9113 78.2929 13.4786 78.2929 14.184V14.69C79.2742 13.7086 80.4396 12.9573 81.7889 12.436C83.1382 11.884 84.5796 11.608 86.1129 11.608Z" fill="#005AFF"/>
<path d="M126.668 1.07397C127.374 1.07397 127.941 1.28864 128.37 1.71797C128.8 2.14731 129.014 2.71464 129.014 3.41997V24.396C129.014 26.788 128.447 28.9653 127.312 30.928C126.208 32.86 124.69 34.3933 122.758 35.528C120.857 36.632 118.726 37.184 116.364 37.184C114.003 37.184 111.841 36.632 109.878 35.528C107.946 34.3933 106.428 32.86 105.324 30.928C104.22 28.9653 103.668 26.788 103.668 24.396C103.668 22.004 104.174 19.842 105.186 17.91C106.229 15.9473 107.64 14.414 109.418 13.31C111.228 12.206 113.236 11.654 115.444 11.654C117.223 11.654 118.879 12.022 120.412 12.758C121.946 13.494 123.249 14.5213 124.322 15.84V3.41997C124.322 2.71464 124.537 2.14731 124.966 1.71797C125.426 1.28864 125.994 1.07397 126.668 1.07397ZM116.364 33.044C117.898 33.044 119.278 32.676 120.504 31.94C121.762 31.1733 122.743 30.1306 123.448 28.812C124.154 27.4933 124.506 26.0213 124.506 24.396C124.506 22.7706 124.154 21.314 123.448 20.026C122.743 18.7073 121.762 17.68 120.504 16.944C119.278 16.1773 117.898 15.794 116.364 15.794C114.831 15.794 113.436 16.1773 112.178 16.944C110.952 17.68 109.97 18.7073 109.234 20.026C108.529 21.314 108.176 22.7706 108.176 24.396C108.176 26.0213 108.529 27.4933 109.234 28.812C109.97 30.1306 110.952 31.1733 112.178 31.94C113.436 32.676 114.831 33.044 116.364 33.044Z" fill="#005AFF"/>
<path d="M159.886 24.028C159.886 24.6106 159.687 25.1013 159.288 25.5C158.889 25.868 158.383 26.052 157.77 26.052H140.29C140.627 28.1986 141.593 29.9313 143.188 31.25C144.813 32.5686 146.791 33.228 149.122 33.228C150.042 33.228 150.993 33.0593 151.974 32.722C152.986 32.3846 153.814 31.9706 154.458 31.48C154.887 31.1426 155.393 30.974 155.976 30.974C156.559 30.974 157.019 31.1273 157.356 31.434C157.908 31.894 158.184 32.4153 158.184 32.998C158.184 33.55 157.939 34.01 157.448 34.378C156.405 35.206 155.102 35.8806 153.538 36.402C152.005 36.9233 150.533 37.184 149.122 37.184C146.607 37.184 144.353 36.6473 142.36 35.574C140.367 34.47 138.803 32.952 137.668 31.02C136.564 29.088 136.012 26.8953 136.012 24.442C136.012 21.9886 136.533 19.796 137.576 17.864C138.649 15.9013 140.121 14.3833 141.992 13.31C143.893 12.206 146.04 11.654 148.432 11.654C150.793 11.654 152.833 12.1753 154.55 13.218C156.267 14.2606 157.586 15.7173 158.506 17.588C159.426 19.4586 159.886 21.6053 159.886 24.028ZM148.432 15.61C146.193 15.61 144.369 16.2233 142.958 17.45C141.578 18.6766 140.704 20.3173 140.336 22.372H155.654C155.378 20.3173 154.611 18.6766 153.354 17.45C152.097 16.2233 150.456 15.61 148.432 15.61Z" fill="#005AFF"/>
<path d="M175.024 37.184C172.939 37.184 170.976 36.862 169.136 36.218C167.296 35.574 165.855 34.7306 164.812 33.688C164.414 33.2893 164.214 32.814 164.214 32.262C164.214 31.526 164.521 30.928 165.134 30.468C165.717 30.0386 166.254 29.824 166.744 29.824C167.358 29.824 167.94 30.1 168.492 30.652C169.075 31.296 169.949 31.8633 171.114 32.354C172.28 32.814 173.522 33.044 174.84 33.044C176.588 33.044 177.938 32.7526 178.888 32.17C179.87 31.5873 180.36 30.8053 180.36 29.824C180.36 28.8733 179.885 28.0913 178.934 27.478C177.984 26.834 176.374 26.2973 174.104 25.868C168.216 24.7333 165.272 22.3106 165.272 18.6C165.272 17.0973 165.717 15.8246 166.606 14.782C167.496 13.7393 168.661 12.9573 170.102 12.436C171.544 11.9146 173.077 11.654 174.702 11.654C176.696 11.654 178.474 11.976 180.038 12.62C181.633 13.264 182.89 14.1533 183.81 15.288C184.209 15.7786 184.408 16.2693 184.408 16.76C184.408 17.2813 184.148 17.7566 183.626 18.186C183.289 18.4313 182.86 18.554 182.338 18.554C181.541 18.554 180.82 18.2626 180.176 17.68C179.41 16.9746 178.597 16.484 177.738 16.208C176.88 15.9013 175.837 15.748 174.61 15.748C173.2 15.748 172.034 15.9933 171.114 16.484C170.225 16.944 169.78 17.6033 169.78 18.462C169.78 19.0753 169.934 19.5966 170.24 20.026C170.547 20.4246 171.13 20.808 171.988 21.176C172.847 21.5133 174.089 21.8506 175.714 22.188C179.057 22.8626 181.418 23.798 182.798 24.994C184.209 26.19 184.914 27.7386 184.914 29.64C184.914 31.0506 184.531 32.3386 183.764 33.504C182.998 34.6386 181.863 35.5433 180.36 36.218C178.888 36.862 177.11 37.184 175.024 37.184Z" fill="#005AFF"/>
<path d="M209.845 33.688C210.182 34.056 210.351 34.516 210.351 35.068C210.351 35.7426 210.075 36.31 209.523 36.77C209.063 37.138 208.572 37.322 208.051 37.322C207.376 37.322 206.824 37.046 206.395 36.494L197.655 25.684L195.355 27.708V34.746C195.355 35.4206 195.14 35.9726 194.711 36.402C194.312 36.8006 193.776 37 193.101 37C192.426 37 191.874 36.8006 191.445 36.402C191.046 35.9726 190.847 35.4206 190.847 34.746V3.32797C190.847 2.65331 191.046 2.11664 191.445 1.71797C191.874 1.28864 192.426 1.07397 193.101 1.07397C193.776 1.07397 194.312 1.28864 194.711 1.71797C195.14 2.11664 195.355 2.65331 195.355 3.32797V22.05L206.533 12.068C206.932 11.6693 207.407 11.47 207.959 11.47C208.603 11.47 209.124 11.7153 209.523 12.206C209.922 12.6046 210.121 13.08 210.121 13.632C210.121 14.276 209.876 14.7973 209.385 15.196L200.921 22.74L209.845 33.688Z" fill="#005AFF"/>
<path d="M15.996 5.30597C14.2786 5.30597 12.8986 5.87331 11.856 7.00797C10.8133 8.14264 10.292 9.64531 10.292 11.516V12.758H14.984C15.628 12.758 16.1493 12.942 16.548 13.31C16.9466 13.678 17.146 14.1686 17.146 14.782C17.146 15.334 16.9466 15.794 16.548 16.162C16.1493 16.53 15.628 16.714 14.984 16.714H10.292V34.654C10.292 35.3593 10.0773 35.9266 9.64796 36.356C9.21863 36.7853 8.62063 37 7.85396 37C7.24063 37 6.70396 36.7853 6.24396 36.356C5.81463 35.9266 5.59996 35.3593 5.59996 34.654V16.714H3.62196C2.97796 16.714 2.45663 16.53 2.05796 16.162C1.65929 15.794 1.45996 15.334 1.45996 14.782C1.45996 14.1686 1.65929 13.678 2.05796 13.31C2.45663 12.942 2.97796 12.758 3.62196 12.758H5.59996V11.976C5.59996 9.79864 6.02929 7.89731 6.88796 6.27197C7.77729 4.61597 9.00396 3.34331 10.568 2.45397C12.1626 1.53397 13.972 1.07397 15.996 1.07397C16.6706 1.07397 17.2226 1.27331 17.652 1.67198C18.112 2.07064 18.342 2.57664 18.342 3.18997C18.342 3.80331 18.112 4.30931 17.652 4.70797C17.2226 5.10664 16.6706 5.30597 15.996 5.30597Z" stroke="#005AFF" stroke-width="2" mask="url(#path-1-outside-1_102_455)"/>
<path d="M34.3586 11.562C35.9839 11.562 37.2566 11.8073 38.1766 12.298C39.0966 12.7886 39.5566 13.402 39.5566 14.138C39.5566 14.3526 39.5413 14.506 39.5106 14.598C39.2346 15.5793 38.6213 16.07 37.6706 16.07C37.5173 16.07 37.2873 16.0393 36.9806 15.978C35.7539 15.7633 34.7573 15.656 33.9906 15.656C31.7826 15.656 30.0039 16.162 28.6546 17.174C27.3053 18.186 26.6306 19.5506 26.6306 21.268V34.7C26.6306 35.436 26.4313 36.0033 26.0326 36.402C25.6646 36.8006 25.0973 37 24.3306 37C23.5946 37 23.0273 36.816 22.6286 36.448C22.2299 36.0493 22.0306 35.4666 22.0306 34.7V14.138C22.0306 13.402 22.2299 12.8346 22.6286 12.436C23.0273 12.0373 23.5946 11.838 24.3306 11.838C25.8639 11.838 26.6306 12.6046 26.6306 14.138V15.012C27.5506 13.9386 28.6853 13.0953 30.0346 12.482C31.3839 11.8686 32.8253 11.562 34.3586 11.562Z" stroke="#005AFF" stroke-width="2" mask="url(#path-1-outside-1_102_455)"/>
<path d="M53.9679 37.184C51.5146 37.184 49.3219 36.6473 47.3899 35.574C45.4579 34.47 43.9552 32.952 42.8819 31.02C41.8086 29.088 41.2719 26.8953 41.2719 24.442C41.2719 21.958 41.8086 19.75 42.8819 17.818C43.9552 15.886 45.4579 14.3833 47.3899 13.31C49.3219 12.206 51.5146 11.654 53.9679 11.654C56.3906 11.654 58.5526 12.206 60.4539 13.31C62.3859 14.3833 63.8886 15.886 64.9619 17.818C66.0659 19.75 66.6179 21.958 66.6179 24.442C66.6179 26.8953 66.0812 29.088 65.0079 31.02C63.9345 32.952 62.4319 34.47 60.4999 35.574C58.5986 36.6473 56.4212 37.184 53.9679 37.184ZM53.9679 33.044C55.5319 33.044 56.9272 32.676 58.1539 31.94C59.4112 31.204 60.3772 30.192 61.0519 28.904C61.7572 27.5853 62.1099 26.098 62.1099 24.442C62.1099 22.786 61.7572 21.2986 61.0519 19.98C60.3772 18.6613 59.4112 17.634 58.1539 16.898C56.9272 16.162 55.5319 15.794 53.9679 15.794C52.4039 15.794 50.9932 16.162 49.7359 16.898C48.5092 17.634 47.5432 18.6613 46.8379 19.98C46.1325 21.2986 45.7799 22.786 45.7799 24.442C45.7799 26.098 46.1325 27.5853 46.8379 28.904C47.5432 30.192 48.5092 31.204 49.7359 31.94C50.9932 32.676 52.4039 33.044 53.9679 33.044Z" stroke="#005AFF" stroke-width="2" mask="url(#path-1-outside-1_102_455)"/>
<path d="M86.1129 11.608C88.2289 11.608 90.1302 12.068 91.8169 12.988C93.5036 13.908 94.8222 15.2573 95.7729 17.036C96.7236 18.784 97.1989 20.9 97.1989 23.384V34.7C97.1989 35.3746 96.9689 35.942 96.5089 36.402C96.0796 36.8313 95.5276 37.046 94.8529 37.046C94.1782 37.046 93.6109 36.8313 93.1509 36.402C92.7216 35.942 92.5069 35.3746 92.5069 34.7V23.384C92.5069 20.9 91.8322 19.0293 90.4829 17.772C89.1642 16.484 87.4009 15.84 85.1929 15.84C83.9049 15.84 82.7242 16.1006 81.6509 16.622C80.6082 17.1433 79.7802 17.8486 79.1669 18.738C78.5842 19.6273 78.2929 20.624 78.2929 21.728V34.7C78.2929 35.3746 78.0782 35.942 77.6489 36.402C77.2196 36.8313 76.6522 37.046 75.9469 37.046C75.2722 37.046 74.7049 36.8313 74.2449 36.402C73.8156 35.942 73.6009 35.3746 73.6009 34.7V14.184C73.6009 13.4786 73.8156 12.9113 74.2449 12.482C74.7049 12.0526 75.2722 11.838 75.9469 11.838C76.6522 11.838 77.2196 12.0526 77.6489 12.482C78.0782 12.9113 78.2929 13.4786 78.2929 14.184V14.69C79.2742 13.7086 80.4396 12.9573 81.7889 12.436C83.1382 11.884 84.5796 11.608 86.1129 11.608Z" stroke="#005AFF" stroke-width="2" mask="url(#path-1-outside-1_102_455)"/>
<path d="M126.668 1.07397C127.374 1.07397 127.941 1.28864 128.37 1.71797C128.8 2.14731 129.014 2.71464 129.014 3.41997V24.396C129.014 26.788 128.447 28.9653 127.312 30.928C126.208 32.86 124.69 34.3933 122.758 35.528C120.857 36.632 118.726 37.184 116.364 37.184C114.003 37.184 111.841 36.632 109.878 35.528C107.946 34.3933 106.428 32.86 105.324 30.928C104.22 28.9653 103.668 26.788 103.668 24.396C103.668 22.004 104.174 19.842 105.186 17.91C106.229 15.9473 107.64 14.414 109.418 13.31C111.228 12.206 113.236 11.654 115.444 11.654C117.223 11.654 118.879 12.022 120.412 12.758C121.946 13.494 123.249 14.5213 124.322 15.84V3.41997C124.322 2.71464 124.537 2.14731 124.966 1.71797C125.426 1.28864 125.994 1.07397 126.668 1.07397ZM116.364 33.044C117.898 33.044 119.278 32.676 120.504 31.94C121.762 31.1733 122.743 30.1306 123.448 28.812C124.154 27.4933 124.506 26.0213 124.506 24.396C124.506 22.7706 124.154 21.314 123.448 20.026C122.743 18.7073 121.762 17.68 120.504 16.944C119.278 16.1773 117.898 15.794 116.364 15.794C114.831 15.794 113.436 16.1773 112.178 16.944C110.952 17.68 109.97 18.7073 109.234 20.026C108.529 21.314 108.176 22.7706 108.176 24.396C108.176 26.0213 108.529 27.4933 109.234 28.812C109.97 30.1306 110.952 31.1733 112.178 31.94C113.436 32.676 114.831 33.044 116.364 33.044Z" stroke="#005AFF" stroke-width="2" mask="url(#path-1-outside-1_102_455)"/>
<path d="M159.886 24.028C159.886 24.6106 159.687 25.1013 159.288 25.5C158.889 25.868 158.383 26.052 157.77 26.052H140.29C140.627 28.1986 141.593 29.9313 143.188 31.25C144.813 32.5686 146.791 33.228 149.122 33.228C150.042 33.228 150.993 33.0593 151.974 32.722C152.986 32.3846 153.814 31.9706 154.458 31.48C154.887 31.1426 155.393 30.974 155.976 30.974C156.559 30.974 157.019 31.1273 157.356 31.434C157.908 31.894 158.184 32.4153 158.184 32.998C158.184 33.55 157.939 34.01 157.448 34.378C156.405 35.206 155.102 35.8806 153.538 36.402C152.005 36.9233 150.533 37.184 149.122 37.184C146.607 37.184 144.353 36.6473 142.36 35.574C140.367 34.47 138.803 32.952 137.668 31.02C136.564 29.088 136.012 26.8953 136.012 24.442C136.012 21.9886 136.533 19.796 137.576 17.864C138.649 15.9013 140.121 14.3833 141.992 13.31C143.893 12.206 146.04 11.654 148.432 11.654C150.793 11.654 152.833 12.1753 154.55 13.218C156.267 14.2606 157.586 15.7173 158.506 17.588C159.426 19.4586 159.886 21.6053 159.886 24.028ZM148.432 15.61C146.193 15.61 144.369 16.2233 142.958 17.45C141.578 18.6766 140.704 20.3173 140.336 22.372H155.654C155.378 20.3173 154.611 18.6766 153.354 17.45C152.097 16.2233 150.456 15.61 148.432 15.61Z" stroke="#005AFF" stroke-width="2" mask="url(#path-1-outside-1_102_455)"/>
<path d="M175.024 37.184C172.939 37.184 170.976 36.862 169.136 36.218C167.296 35.574 165.855 34.7306 164.812 33.688C164.414 33.2893 164.214 32.814 164.214 32.262C164.214 31.526 164.521 30.928 165.134 30.468C165.717 30.0386 166.254 29.824 166.744 29.824C167.358 29.824 167.94 30.1 168.492 30.652C169.075 31.296 169.949 31.8633 171.114 32.354C172.28 32.814 173.522 33.044 174.84 33.044C176.588 33.044 177.938 32.7526 178.888 32.17C179.87 31.5873 180.36 30.8053 180.36 29.824C180.36 28.8733 179.885 28.0913 178.934 27.478C177.984 26.834 176.374 26.2973 174.104 25.868C168.216 24.7333 165.272 22.3106 165.272 18.6C165.272 17.0973 165.717 15.8246 166.606 14.782C167.496 13.7393 168.661 12.9573 170.102 12.436C171.544 11.9146 173.077 11.654 174.702 11.654C176.696 11.654 178.474 11.976 180.038 12.62C181.633 13.264 182.89 14.1533 183.81 15.288C184.209 15.7786 184.408 16.2693 184.408 16.76C184.408 17.2813 184.148 17.7566 183.626 18.186C183.289 18.4313 182.86 18.554 182.338 18.554C181.541 18.554 180.82 18.2626 180.176 17.68C179.41 16.9746 178.597 16.484 177.738 16.208C176.88 15.9013 175.837 15.748 174.61 15.748C173.2 15.748 172.034 15.9933 171.114 16.484C170.225 16.944 169.78 17.6033 169.78 18.462C169.78 19.0753 169.934 19.5966 170.24 20.026C170.547 20.4246 171.13 20.808 171.988 21.176C172.847 21.5133 174.089 21.8506 175.714 22.188C179.057 22.8626 181.418 23.798 182.798 24.994C184.209 26.19 184.914 27.7386 184.914 29.64C184.914 31.0506 184.531 32.3386 183.764 33.504C182.998 34.6386 181.863 35.5433 180.36 36.218C178.888 36.862 177.11 37.184 175.024 37.184Z" stroke="#005AFF" stroke-width="2" mask="url(#path-1-outside-1_102_455)"/>
<path d="M209.845 33.688C210.182 34.056 210.351 34.516 210.351 35.068C210.351 35.7426 210.075 36.31 209.523 36.77C209.063 37.138 208.572 37.322 208.051 37.322C207.376 37.322 206.824 37.046 206.395 36.494L197.655 25.684L195.355 27.708V34.746C195.355 35.4206 195.14 35.9726 194.711 36.402C194.312 36.8006 193.776 37 193.101 37C192.426 37 191.874 36.8006 191.445 36.402C191.046 35.9726 190.847 35.4206 190.847 34.746V3.32797C190.847 2.65331 191.046 2.11664 191.445 1.71797C191.874 1.28864 192.426 1.07397 193.101 1.07397C193.776 1.07397 194.312 1.28864 194.711 1.71797C195.14 2.11664 195.355 2.65331 195.355 3.32797V22.05L206.533 12.068C206.932 11.6693 207.407 11.47 207.959 11.47C208.603 11.47 209.124 11.7153 209.523 12.206C209.922 12.6046 210.121 13.08 210.121 13.632C210.121 14.276 209.876 14.7973 209.385 15.196L200.921 22.74L209.845 33.688Z" stroke="#005AFF" stroke-width="2" mask="url(#path-1-outside-1_102_455)"/>
</svg>
